<svg width="70" height="70" viewBox="0 0 70 70" fill="none" xmlns="http://www.w3.org/2000/svg">
<rect width="70" height="70" rx="35" fill="white"/>
<path fill-rule="evenodd" clip-rule="evenodd" d="M43.3768 25.1929C43.3768 29.7177 39.8502 33.3857 35.5 33.3857C31.1498 33.3857 27.6232 29.7177 27.6232 25.1929C27.6232 20.6681 31.1498 17 35.5 17C39.8502 17 43.3768 20.6681 43.3768 25.1929ZM40.7512 25.1929C40.7512 28.2094 38.4001 30.6548 35.5 30.6548C32.5998 30.6548 30.2488 28.2094 30.2488 25.1929C30.2488 22.1763 32.5998 19.731 35.5 19.731C38.4001 19.731 40.7512 22.1763 40.7512 25.1929Z" fill="black"/>
<path d="M35.5 37.4822C27.0004 37.4822 19.7586 42.7098 17 50.0337C17.672 50.7278 18.3799 51.3843 19.1206 52C21.1748 45.2759 27.6189 40.2131 35.5 40.2131C43.3811 40.2131 49.8252 45.2759 51.8794 52C52.6201 51.3843 53.328 50.7278 54 50.0337C51.2414 42.7098 43.9996 37.4822 35.5 37.4822Z" fill="black"/>
</svg>
